<svg width="1024" height="1024" viewBox="0 0 1024 1024" fill="none" xmlns="http://www.w3.org/2000/svg">
<rect width="1024" height="1024" fill="white"/>
<path d="M618.976 487.433C646.867 480.434 669.477 500.529 669.477 532.316C669.477 564.104 646.867 595.545 618.976 602.544C591.085 609.542 568.475 589.448 568.475 557.661C568.475 525.874 591.085 494.432 618.976 487.433ZM760.525 451.914C788.416 444.915 811.026 465.01 811.026 496.797C811.026 528.584 788.416 560.026 760.525 567.024C732.634 574.023 710.025 553.929 710.025 522.141C710.025 490.355 732.634 458.913 760.525 451.914Z" fill="white"/>
<path d="M837.406 338.81C850.168 335.21 862.836 344.798 862.836 358.058V708.972C862.836 718.041 859.782 726.548 854.531 733.369C842.25 709.965 817.715 694 789.45 694C748.885 694 716 726.885 716 767.45C716 771.77 716.374 776.002 717.089 780.117L506.893 838.97C494.14 842.54 481.5 832.953 481.5 819.71V469.482C481.5 451.574 493.404 435.847 510.641 430.985L837.406 338.81ZM161 331.912C161 317.319 176.124 307.639 189.376 313.75L435.251 427.139C449.423 433.674 458.5 447.856 458.5 463.462V813.71C458.5 828.285 443.409 837.966 430.161 831.89L184.323 719.126C170.111 712.607 161 698.404 161 682.769V331.912ZM789.45 707L790.231 707.005C790.564 707.009 790.897 707.017 791.229 707.026C791.32 707.029 791.411 707.031 791.502 707.034C791.787 707.044 792.071 707.056 792.355 707.069C792.416 707.072 792.476 707.074 792.536 707.077C792.849 707.093 793.16 707.111 793.472 707.132C793.571 707.138 793.671 707.145 793.771 707.152C794.045 707.172 794.32 707.193 794.594 707.216C794.655 707.221 794.716 707.226 794.777 707.231C795.096 707.259 795.414 707.29 795.731 707.323C795.765 707.327 795.799 707.329 795.832 707.333L796.392 707.395C796.53 707.41 796.668 707.427 796.806 707.443C796.868 707.451 796.93 707.458 796.992 707.466C797.313 707.506 797.632 707.549 797.951 707.594C798.037 707.606 798.122 707.618 798.208 707.631C798.47 707.669 798.732 707.708 798.993 707.749C799.066 707.761 799.14 707.772 799.213 707.784C799.529 707.835 799.844 707.889 800.158 707.945C800.235 707.959 800.311 707.974 800.388 707.988C800.634 708.033 800.879 708.079 801.124 708.127C801.226 708.147 801.327 708.167 801.429 708.187C802.063 708.315 802.694 708.452 803.321 708.6C803.391 708.616 803.46 708.632 803.529 708.648C803.793 708.711 804.055 708.776 804.317 708.843C804.39 708.861 804.462 708.879 804.534 708.897C804.849 708.978 805.162 709.062 805.475 709.147C805.515 709.158 805.555 709.17 805.595 709.181C806.248 709.361 806.898 709.552 807.542 709.754C807.595 709.771 807.649 709.788 807.702 709.805C808.331 710.004 808.955 710.212 809.574 710.431C809.664 710.462 809.754 710.495 809.844 710.527C810.053 710.602 810.262 710.679 810.471 710.756C810.58 710.796 810.69 710.838 810.799 710.879C811.076 710.983 811.352 711.09 811.627 711.198C811.667 711.214 811.706 711.229 811.746 711.245C812.02 711.354 812.293 711.465 812.564 711.577C812.617 711.599 812.669 711.621 812.722 711.643C813.33 711.897 813.934 712.16 814.532 712.434C814.575 712.453 814.617 712.473 814.659 712.492C815.216 712.748 815.769 713.011 816.316 713.283L816.527 713.389C816.575 713.413 816.623 713.438 816.671 713.462C816.874 713.565 817.076 713.669 817.278 713.773C817.374 713.823 817.47 713.873 817.565 713.923C817.836 714.065 818.104 714.209 818.372 714.355C818.406 714.374 818.44 714.393 818.475 714.412C818.746 714.561 819.016 714.711 819.285 714.864C819.314 714.881 819.342 714.897 819.371 714.913C819.924 715.229 820.472 715.553 821.014 715.886C821.1 715.939 821.186 715.992 821.271 716.045C821.802 716.374 822.328 716.711 822.848 717.057C822.916 717.102 822.984 717.148 823.053 717.193C823.588 717.552 824.117 717.919 824.64 718.294C824.67 718.316 824.7 718.338 824.73 718.359C825.267 718.746 825.798 719.141 826.321 719.545C826.364 719.578 826.407 719.611 826.45 719.645C826.671 719.816 826.892 719.989 827.11 720.163C827.154 720.198 827.198 720.232 827.242 720.268C827.743 720.67 828.238 721.08 828.726 721.497C828.78 721.544 828.834 721.591 828.889 721.638C829.387 722.067 829.878 722.505 830.362 722.95C830.386 722.972 830.409 722.993 830.433 723.015C830.918 723.462 831.396 723.918 831.866 724.381C831.908 724.422 831.95 724.463 831.991 724.504C832.699 725.206 833.39 725.924 834.063 726.66C834.087 726.686 834.112 726.712 834.136 726.738C834.589 727.235 835.032 727.74 835.469 728.252C835.489 728.276 835.509 728.299 835.529 728.323C836.42 729.371 837.274 730.449 838.093 731.557C838.114 731.585 838.135 731.613 838.155 731.641C838.55 732.176 838.936 732.719 839.313 733.268C839.337 733.301 839.36 733.335 839.383 733.369C840.159 734.504 840.897 735.666 841.596 736.854C841.62 736.896 841.644 736.939 841.669 736.98C842.176 737.848 842.663 738.729 843.128 739.624C843.145 739.657 843.162 739.691 843.18 739.725C847.474 748.029 849.9 757.456 849.9 767.45C849.9 800.836 822.836 827.9 789.45 827.9C758.859 827.9 733.576 805.176 729.558 775.687C729.546 775.605 729.535 775.522 729.524 775.439C729.493 775.199 729.462 774.958 729.433 774.717C729.422 774.625 729.411 774.534 729.4 774.442C729.328 773.811 729.265 773.176 729.212 772.538C729.207 772.483 729.203 772.428 729.198 772.373C729.177 772.116 729.158 771.858 729.141 771.6C729.12 771.291 729.102 770.982 729.086 770.673C729.082 770.604 729.078 770.536 729.074 770.468C729.069 770.369 729.065 770.27 729.061 770.171C729.05 769.927 729.04 769.684 729.032 769.439C729.03 769.355 729.027 769.271 729.024 769.187C729.008 768.61 729 768.031 729 767.45C729 734.065 756.065 707 789.45 707ZM664.162 526.878C664.162 494.685 642.411 474.119 615.581 480.943C588.751 487.768 567 519.399 567 551.592C567 583.785 588.751 604.35 615.581 597.525C642.411 590.701 664.162 559.071 664.162 526.878ZM800.33 492.242C800.33 460.049 778.579 439.483 751.749 446.308C724.919 453.132 703.168 484.763 703.168 516.956C703.168 549.149 724.919 569.714 751.749 562.89C778.579 556.065 800.329 524.435 800.33 492.242ZM533.815 183.933C547.497 180.102 562.094 181.251 575.008 187.175L822.655 300.769C831.11 304.647 830.154 316.957 821.201 319.482L492.271 412.269C478.518 416.148 463.832 414.991 450.855 409.007L203.195 294.795C194.749 290.9 195.73 278.592 204.688 276.084L533.815 183.933Z" fill="black"/>
</svg>
